<svg width="609" height="121" viewBox="0 0 609 121" fill="none" xmlns="http://www.w3.org/2000/svg">
<path d="M68.1767 43.7735C68.0009 44.0926 67.6654 44.2909 67.3011 44.291L40.0123 44.2997L12.7233 44.3084C12.359 44.3085 12.0235 44.1106 11.8475 43.7917L0.818977 23.8168C0.451 23.1503 0.933089 22.3334 1.69441 22.3334L28.87 22.3334C29.255 22.3334 29.6058 22.5544 29.772 22.9017L40.0123 44.2997L50.7238 22.8855C50.8931 22.5471 51.2389 22.3332 51.6173 22.3329L78.3059 22.31C79.0671 22.3094 79.5499 23.1257 79.1826 23.7925L68.1767 43.7735Z" fill="#40196D"/>
<path d="M57.2937 63.9139C57.123 64.2484 56.7792 64.459 56.4036 64.4592L23.5042 64.4767C23.1276 64.4769 22.7829 64.2655 22.6122 63.9298L17.0067 52.9017C16.6691 52.2377 17.1501 51.4509 17.895 51.4486L62.0897 51.3138C62.838 51.3115 63.3236 52.1019 62.9834 52.7684L57.2937 63.9139Z" fill="#40196D"/>
<path d="M40.8516 96.9488C40.4795 97.6752 39.4408 97.674 39.0705 96.9467L26.8412 72.9305C26.5024 72.2652 26.9857 71.4767 27.7323 71.4767H52.2645C53.0122 71.4767 53.4954 72.2672 53.1545 72.9326L40.8516 96.9488Z" fill="#40196D"/>
<path d="M120.46 24.2727L138.038 79.5284H138.713L156.327 24.2727H173.372L148.301 97H128.486L103.379 24.2727H120.46ZM200.547 98.0653C194.936 98.0653 190.107 96.929 186.059 94.6562C182.034 92.3598 178.933 89.1165 176.755 84.9261C174.577 80.7121 173.488 75.7287 173.488 69.9759C173.488 64.3651 174.577 59.4408 176.755 55.2031C178.933 50.9654 181.998 47.6629 185.952 45.2955C189.929 42.928 194.593 41.7443 199.944 41.7443C203.542 41.7443 206.892 42.3243 209.993 43.4844C213.118 44.6207 215.841 46.3371 218.161 48.6335C220.505 50.9299 222.328 53.8182 223.63 57.2983C224.932 60.7547 225.583 64.803 225.583 69.4432V73.598H179.525V64.223H211.343C211.343 62.045 210.869 60.1155 209.922 58.4347C208.975 56.7538 207.661 55.4399 205.98 54.4929C204.323 53.5223 202.394 53.0369 200.192 53.0369C197.896 53.0369 195.86 53.5696 194.084 54.6349C192.332 55.6766 190.959 57.0852 189.965 58.8608C188.971 60.6127 188.462 62.5658 188.438 64.7202V73.6335C188.438 76.3324 188.935 78.6643 189.929 80.6293C190.947 82.5942 192.38 84.1094 194.226 85.1747C196.073 86.2401 198.263 86.7727 200.796 86.7727C202.477 86.7727 204.016 86.536 205.412 86.0625C206.809 85.589 208.005 84.8788 208.999 83.9318C209.993 82.9848 210.751 81.8248 211.272 80.4517L225.263 81.375C224.553 84.7367 223.097 87.6723 220.895 90.1818C218.717 92.6676 215.9 94.6089 212.444 96.0057C209.011 97.3788 205.045 98.0653 200.547 98.0653ZM260.313 98.0653C254.702 98.0653 249.873 96.929 245.824 94.6562C241.8 92.3598 238.698 89.1165 236.52 84.9261C234.342 80.7121 233.253 75.7287 233.253 69.9759C233.253 64.3651 234.342 59.4408 236.52 55.2031C238.698 50.9654 241.764 47.6629 245.718 45.2955C249.695 42.928 254.359 41.7443 259.709 41.7443C263.308 41.7443 266.658 42.3243 269.759 43.4844C272.884 44.6207 275.606 46.3371 277.926 48.6335C280.27 50.9299 282.093 53.8182 283.395 57.2983C284.697 60.7547 285.348 64.803 285.348 69.4432V73.598H239.29V64.223H271.108C271.108 62.045 270.635 60.1155 269.688 58.4347C268.741 56.7538 267.427 55.4399 265.746 54.4929C264.089 53.5223 262.159 53.0369 259.958 53.0369C257.661 53.0369 255.625 53.5696 253.85 54.6349C252.098 55.6766 250.725 57.0852 249.73 58.8608C248.736 60.6127 248.227 62.5658 248.203 64.7202V73.6335C248.203 76.3324 248.701 78.6643 249.695 80.6293C250.713 82.5942 252.145 84.1094 253.992 85.1747C255.838 86.2401 258.028 86.7727 260.561 86.7727C262.242 86.7727 263.781 86.536 265.178 86.0625C266.575 85.589 267.77 84.8788 268.765 83.9318C269.759 82.9848 270.516 81.8248 271.037 80.4517L285.029 81.375C284.319 84.7367 282.863 87.6723 280.661 90.1818C278.483 92.6676 275.666 94.6089 272.209 96.0057C268.776 97.3788 264.811 98.0653 260.313 98.0653ZM319.794 118.591C314.894 118.591 310.692 117.916 307.188 116.567C303.708 115.241 300.938 113.43 298.878 111.134C296.819 108.837 295.481 106.257 294.865 103.392L308.857 101.51C309.283 102.599 309.958 103.617 310.881 104.564C311.804 105.511 313.024 106.268 314.539 106.837C316.078 107.429 317.948 107.724 320.15 107.724C323.44 107.724 326.151 106.92 328.282 105.31C330.436 103.723 331.513 101.06 331.513 97.3196V87.3409H330.874C330.211 88.8561 329.217 90.2884 327.891 91.6378C326.565 92.9872 324.861 94.0881 322.777 94.9403C320.694 95.7926 318.208 96.2188 315.32 96.2188C311.224 96.2188 307.496 95.2718 304.134 93.3778C300.796 91.4602 298.132 88.5365 296.144 84.6065C294.179 80.6529 293.196 75.6577 293.196 69.6207C293.196 63.4418 294.203 58.2808 296.215 54.1378C298.227 49.9948 300.902 46.8935 304.24 44.8338C307.602 42.7741 311.283 41.7443 315.284 41.7443C318.338 41.7443 320.895 42.2652 322.955 43.3068C325.015 44.3248 326.672 45.6032 327.926 47.142C329.205 48.6572 330.187 50.1487 330.874 51.6165H331.442V42.4545H346.463V97.5327C346.463 102.173 345.327 106.055 343.054 109.18C340.782 112.305 337.633 114.649 333.608 116.212C329.607 117.798 325.003 118.591 319.794 118.591ZM320.114 84.8551C322.552 84.8551 324.612 84.2514 326.293 83.044C327.998 81.813 329.3 80.0611 330.199 77.7884C331.123 75.492 331.584 72.7457 331.584 69.5497C331.584 66.3537 331.134 63.5838 330.235 61.2401C329.335 58.8726 328.033 57.0379 326.328 55.7358C324.624 54.4337 322.552 53.7827 320.114 53.7827C317.628 53.7827 315.533 54.4574 313.828 55.8068C312.124 57.1326 310.834 58.9792 309.958 61.3466C309.082 63.714 308.644 66.4484 308.644 69.5497C308.644 72.6984 309.082 75.4209 309.958 77.7173C310.857 79.9901 312.148 81.7538 313.828 83.0085C315.533 84.2396 317.628 84.8551 320.114 84.8551ZM358.502 97V42.4545H373.63V97H358.502ZM366.101 35.4233C363.852 35.4233 361.923 34.6776 360.313 33.1861C358.727 31.6709 357.934 29.8598 357.934 27.7528C357.934 25.6695 358.727 23.8821 360.313 22.3906C361.923 20.8755 363.852 20.1179 366.101 20.1179C368.35 20.1179 370.268 20.8755 371.854 22.3906C373.464 23.8821 374.269 25.6695 374.269 27.7528C374.269 29.8598 373.464 31.6709 371.854 33.1861C370.268 34.6776 368.35 35.4233 366.101 35.4233ZM400.876 24.2727V97H385.748V24.2727H400.876Z" fill="black"/>
<path d="M436.423 97V24.2727H465.116C470.632 24.2727 475.331 25.3262 479.214 27.4332C483.096 29.5166 486.056 32.4167 488.092 36.1335C490.151 39.8267 491.181 44.0881 491.181 48.9176C491.181 53.7472 490.139 58.0085 488.056 61.7017C485.973 65.3949 482.954 68.2713 479.001 70.331C475.071 72.3906 470.312 73.4205 464.725 73.4205H446.437V61.098H462.239C465.199 61.098 467.637 60.589 469.555 59.571C471.496 58.5294 472.94 57.0971 473.887 55.2741C474.858 53.4276 475.343 51.3087 475.343 48.9176C475.343 46.5028 474.858 44.3958 473.887 42.5966C472.94 40.7737 471.496 39.3651 469.555 38.3707C467.613 37.3527 465.151 36.8438 462.168 36.8438H451.799V97H436.423ZM514.974 98.0298C511.494 98.0298 508.392 97.4261 505.67 96.2188C502.947 94.9877 500.793 93.1766 499.207 90.7855C497.644 88.3707 496.863 85.3641 496.863 81.7656C496.863 78.7353 497.419 76.1903 498.532 74.1307C499.645 72.071 501.16 70.4138 503.077 69.1591C504.995 67.9044 507.173 66.9574 509.612 66.3182C512.074 65.679 514.654 65.2292 517.353 64.9688C520.525 64.6373 523.082 64.3295 525.023 64.0455C526.965 63.7377 528.373 63.2879 529.249 62.696C530.125 62.1042 530.563 61.2282 530.563 60.0682V59.8551C530.563 57.6061 529.853 55.866 528.433 54.6349C527.036 53.4039 525.047 52.7884 522.467 52.7884C519.744 52.7884 517.578 53.392 515.968 54.5994C514.358 55.7831 513.293 57.2746 512.772 59.0739L498.781 57.9375C499.491 54.6231 500.888 51.7585 502.971 49.3438C505.054 46.9053 507.741 45.035 511.032 43.733C514.346 42.4072 518.182 41.7443 522.538 41.7443C525.568 41.7443 528.468 42.0994 531.238 42.8097C534.031 43.5199 536.505 44.6207 538.66 46.1122C540.838 47.6037 542.554 49.5213 543.809 51.8651C545.064 54.1851 545.691 56.9669 545.691 60.2102V97H531.344V89.4361H530.918C530.042 91.1406 528.871 92.6439 527.403 93.946C525.935 95.2244 524.171 96.2306 522.112 96.9645C520.052 97.6747 517.673 98.0298 514.974 98.0298ZM519.306 87.5895C521.531 87.5895 523.496 87.1515 525.201 86.2756C526.906 85.3759 528.243 84.1686 529.214 82.6534C530.184 81.1383 530.67 79.4219 530.67 77.5043V71.7159C530.196 72.0237 529.545 72.3078 528.717 72.5682C527.912 72.8049 527 73.0298 525.982 73.2429C524.964 73.4323 523.946 73.6098 522.928 73.7756C521.91 73.9176 520.987 74.0478 520.158 74.1662C518.383 74.4266 516.832 74.8409 515.506 75.4091C514.181 75.9773 513.151 76.7467 512.417 77.7173C511.683 78.6643 511.316 79.848 511.316 81.2685C511.316 83.3281 512.062 84.9025 513.553 85.9915C515.068 87.0568 516.986 87.5895 519.306 87.5895ZM564.814 117.455C562.896 117.455 561.097 117.301 559.416 116.993C557.759 116.709 556.386 116.342 555.297 115.892L558.706 104.599C560.482 105.144 562.08 105.44 563.5 105.487C564.944 105.535 566.187 105.203 567.229 104.493C568.294 103.783 569.158 102.575 569.821 100.871L570.709 98.5625L551.142 42.4545H567.051L578.344 82.5114H578.912L590.311 42.4545H606.327L585.126 102.895C584.108 105.83 582.723 108.387 580.972 110.565C579.243 112.767 577.054 114.46 574.402 115.643C571.75 116.851 568.554 117.455 564.814 117.455Z" fill="#40196D"/>
</svg>
