<svg width="446" height="351" viewBox="0 0 446 351" fill="none" xmlns="http://www.w3.org/2000/svg">
<path d="M361.754 240.545V240.547C361.754 284.924 301.62 320.899 227.439 320.899C163.31 320.899 109.694 294.009 96.3394 258.052L90.5154 256.653V246.565L87.9067 245.394C81.9634 242.728 81.9634 238.364 87.9067 235.697L90.5154 234.526V145.066L171.425 167.502C188.474 162.815 207.445 160.197 227.439 160.197C248.67 160.197 268.746 163.148 286.596 168.396L361.754 150.333V240.545Z" fill="#0045BC"/>
<path d="M105.5 282.287L110.023 331.52C110.881 340.853 104.009 349.114 94.6754 349.972C85.3413 350.829 77.0806 343.958 76.2231 334.624C76.134 333.591 76.134 332.552 76.2231 331.519L80.7462 282.286C81.3738 275.45 87.4242 270.418 94.2602 271.046C100.324 271.604 104.967 276.433 105.5 282.287Z" fill="#FFB636"/>
<path d="M205.316 244.097L7.13027 134.099C-2.37676 128.822 -2.37676 120.188 7.13027 114.911L205.316 4.91388C214.823 -0.363221 230.381 -0.363221 239.888 4.91388L438.073 114.911C447.58 120.188 447.58 128.823 438.073 134.1L239.889 244.097C230.381 249.374 214.823 249.374 205.316 244.097Z" fill="#002769"/>
<path d="M93.1249 288.193C79.0614 288.193 67.6602 276.792 67.6602 262.727V256.141C67.6602 242.078 79.0614 230.676 93.1249 230.676C107.188 230.676 118.59 242.077 118.59 256.141V262.727C118.59 276.792 107.188 288.193 93.1249 288.193Z" fill="#FFD592"/>
<path d="M93.1247 264.528C85.8112 264.528 79.8828 258.599 79.8828 251.286V191.044C79.8828 186.339 82.3809 181.986 86.4441 179.611L215.921 103.954C222.235 100.264 230.345 102.392 234.035 108.707C237.724 115.021 235.597 123.131 229.283 126.82L106.367 198.644V251.287C106.367 258.599 100.437 264.528 93.1247 264.528Z" fill="#FFB636"/>
<path d="M252.735 115.387C252.735 127.067 239.243 136.535 222.6 136.535C205.957 136.535 192.465 127.067 192.465 115.387C192.465 103.706 205.957 94.2378 222.6 94.2378C239.243 94.2378 252.735 103.706 252.735 115.387Z" fill="#132028"/>
</svg>
