<svg width="1277" height="363" viewBox="0 0 1277 363" fill="none" xmlns="http://www.w3.org/2000/svg">
<path d="M361.754 246.545V246.547C361.754 290.924 301.62 326.899 227.439 326.899C163.31 326.899 109.694 300.009 96.3394 264.052L90.5154 262.653V252.565L87.9067 251.394C81.9634 248.728 81.9634 244.364 87.9067 241.697L90.5154 240.526V151.066L171.425 173.502C188.474 168.815 207.445 166.197 227.439 166.197C248.67 166.197 268.746 169.148 286.596 174.396L361.754 156.333V246.545Z" fill="#0045BC"/>
<path d="M105.5 288.287L110.023 337.52C110.881 346.853 104.009 355.114 94.6754 355.972C85.3413 356.829 77.0806 349.958 76.2231 340.624C76.134 339.591 76.134 338.552 76.2231 337.519L80.7462 288.286C81.3738 281.45 87.4242 276.418 94.2602 277.046C100.324 277.604 104.967 282.433 105.5 288.287Z" fill="#FFB636"/>
<path d="M205.316 250.097L7.13027 140.099C-2.37676 134.822 -2.37676 126.188 7.13027 120.911L205.316 10.9139C214.823 5.63678 230.381 5.63678 239.888 10.9139L438.073 120.911C447.58 126.188 447.58 134.823 438.073 140.1L239.889 250.097C230.381 255.374 214.823 255.374 205.316 250.097Z" fill="#002769"/>
<path d="M93.1249 294.193C79.0614 294.193 67.6602 282.792 67.6602 268.727V262.141C67.6602 248.078 79.0614 236.676 93.1249 236.676C107.188 236.676 118.59 248.077 118.59 262.141V268.727C118.59 282.792 107.188 294.193 93.1249 294.193Z" fill="#FFD592"/>
<path d="M93.1247 270.528C85.8112 270.528 79.8828 264.599 79.8828 257.286V197.044C79.8828 192.339 82.3809 187.986 86.4441 185.611L215.921 109.954C222.235 106.264 230.345 108.392 234.035 114.707C237.724 121.021 235.597 129.131 229.283 132.82L106.367 204.644V257.287C106.367 264.599 100.437 270.528 93.1247 270.528Z" fill="#FFB636"/>
<path d="M252.735 121.387C252.735 133.067 239.243 142.535 222.6 142.535C205.957 142.535 192.465 133.067 192.465 121.387C192.465 109.706 205.957 100.238 222.6 100.238C239.243 100.238 252.735 109.706 252.735 121.387Z" fill="#132028"/>
<path d="M516.135 105.95V72.8182H690.212V105.95H622.776V291H583.571V105.95H516.135ZM804.097 222.179V127.364H842.662V291H805.268V261.916H803.564C799.871 271.078 793.798 278.571 785.347 284.395C776.966 290.219 766.632 293.131 754.345 293.131C743.621 293.131 734.139 290.751 725.901 285.993C717.733 281.163 711.341 274.168 706.724 265.006C702.108 255.773 699.8 244.622 699.8 231.554V127.364H738.365V225.588C738.365 235.957 741.206 244.196 746.888 250.304C752.57 256.412 760.027 259.466 769.26 259.466C774.942 259.466 780.446 258.081 785.773 255.311C791.099 252.541 795.467 248.422 798.876 242.953C802.357 237.413 804.097 230.489 804.097 222.179ZM964.031 127.364V157.193H869.961V127.364H964.031ZM893.186 88.1591H931.751V241.781C931.751 246.966 932.532 250.943 934.095 253.713C935.728 256.412 937.859 258.259 940.487 259.253C943.115 260.247 946.027 260.744 949.223 260.744C951.637 260.744 953.839 260.567 955.828 260.212C957.887 259.857 959.45 259.537 960.515 259.253L967.014 289.402C964.954 290.112 962.007 290.893 958.172 291.746C954.407 292.598 949.791 293.095 944.322 293.237C934.663 293.521 925.963 292.065 918.221 288.869C910.48 285.602 904.336 280.56 899.791 273.741C895.316 266.923 893.115 258.401 893.186 248.173V88.1591ZM1065.9 294.196C1049.92 294.196 1036.07 290.68 1024.36 283.649C1012.64 276.618 1003.55 266.781 997.083 254.139C990.691 241.497 987.495 226.724 987.495 209.821C987.495 192.918 990.691 178.109 997.083 165.396C1003.55 152.683 1012.64 142.811 1024.36 135.78C1036.07 128.749 1049.92 125.233 1065.9 125.233C1081.88 125.233 1095.73 128.749 1107.45 135.78C1119.17 142.811 1128.23 152.683 1134.62 165.396C1141.08 178.109 1144.31 192.918 1144.31 209.821C1144.31 226.724 1141.08 241.497 1134.62 254.139C1128.23 266.781 1119.17 276.618 1107.45 283.649C1095.73 290.68 1081.88 294.196 1065.9 294.196ZM1066.12 263.301C1074.78 263.301 1082.03 260.922 1087.85 256.163C1093.67 251.334 1098.01 244.871 1100.85 236.774C1103.76 228.678 1105.22 219.658 1105.22 209.714C1105.22 199.7 1103.76 190.645 1100.85 182.548C1098.01 174.381 1093.67 167.882 1087.85 163.053C1082.03 158.223 1074.78 155.808 1066.12 155.808C1057.24 155.808 1049.85 158.223 1043.96 163.053C1038.13 167.882 1033.77 174.381 1030.85 182.548C1028.01 190.645 1026.59 199.7 1026.59 209.714C1026.59 219.658 1028.01 228.678 1030.85 236.774C1033.77 244.871 1038.13 251.334 1043.96 256.163C1049.85 260.922 1057.24 263.301 1066.12 263.301ZM1177.05 291V127.364H1214.44V154.636H1216.14C1219.13 145.19 1224.24 137.911 1231.48 132.797C1238.8 127.612 1247.15 125.02 1256.52 125.02C1258.65 125.02 1261.03 125.126 1263.66 125.339C1266.36 125.482 1268.59 125.73 1270.37 126.085V161.561C1268.74 160.993 1266.14 160.496 1262.59 160.07C1259.11 159.572 1255.74 159.324 1252.47 159.324C1245.44 159.324 1239.12 160.851 1233.51 163.905C1227.97 166.888 1223.6 171.043 1220.41 176.369C1217.21 181.696 1215.61 187.839 1215.61 194.8V291H1177.05Z" fill="#002769"/>
</svg>
